<svg width="122" height="47" viewBox="0 0 122 47" fill="none" xmlns="http://www.w3.org/2000/svg">
<path fill-rule="evenodd" clip-rule="evenodd" d="M9.77021 0C4.37427 0 0 4.37427 0 9.77021V36.8153C0 42.2112 4.37427 46.5855 9.77021 46.5855H38.7033C44.0992 46.5855 48.4735 42.2112 48.4735 36.8153V9.77021C48.4735 4.37427 44.0992 0 38.7033 0H9.77021ZM35.3819 37.5143C32.5098 37.3471 28.4108 36.0658 28.4108 29.4082V26.5112C28.4108 25.2576 27.1561 24.8677 26.4868 24.7284C26.2638 24.7005 26.0686 24.4498 26.0686 24.227V22.6113C26.0686 22.3885 26.2638 22.1656 26.4311 22.1099C26.4311 22.1099 28.4108 21.4692 28.4108 20.3271V17.2351C28.4108 10.5776 32.5098 9.29618 35.3819 9.12904C35.6886 9.10118 35.9117 9.29618 35.9396 9.60259C35.9686 10.038 35.9901 10.428 36.0119 10.8239V10.824V10.8241L36.0119 10.8245L36.012 10.8247C36.032 11.1884 36.0523 11.557 36.079 11.9703C36.079 12.1932 35.8838 12.4439 35.6886 12.4996C33.7367 13.001 32.6214 14.5052 32.6214 17.2351V19.77C32.6214 21.9706 30.2512 23.3356 30.2512 23.3356V23.447C30.9762 23.7534 32.6214 24.7841 32.6214 26.7897V29.4082C32.6214 32.1381 33.7367 33.6423 35.6886 34.1437C35.8838 34.1994 36.079 34.4501 36.079 34.673C36.0751 34.8093 36.0717 34.9375 36.0685 35.0594C36.0489 35.8092 36.0355 36.3219 35.9396 37.0407C35.9117 37.3193 35.6607 37.5421 35.3819 37.5143ZM9.45308 29.9504C6.41323 29.9504 3.95424 27.5132 3.95424 24.5732V16.5847C3.95424 16.3913 4.1285 16.2172 4.32212 16.2172H6.70366C6.91664 16.2172 7.07154 16.3913 7.07154 16.5847V24.4184C7.07154 25.7724 8.07837 26.8556 9.45308 26.8556C10.8472 26.8556 11.8733 25.7724 11.8733 24.4184V16.5847C11.8733 16.3913 12.0282 16.2172 12.2412 16.2172H14.6228C14.8164 16.2172 14.9906 16.3913 14.9906 16.5847V24.5732C14.9906 27.5132 12.5123 29.9504 9.45308 29.9504ZM17.7999 29.4082C17.7999 32.1381 16.6845 33.6423 14.7326 34.1437C14.5374 34.1994 14.3422 34.4501 14.3422 34.673C14.3461 34.8093 14.3495 34.9375 14.3527 35.0594C14.3723 35.8092 14.3857 36.3219 14.4816 37.0407C14.5095 37.3193 14.7605 37.5421 15.0393 37.5143C17.9114 37.3471 22.0104 36.0658 22.0104 29.4082V26.5112C22.0104 25.2576 23.2652 24.8677 23.9344 24.7284C24.1574 24.7005 24.3526 24.4498 24.3526 24.227V22.6113C24.3526 22.3885 24.1574 22.1656 23.9901 22.1099C23.9901 22.1099 22.0104 21.4692 22.0104 20.3271V17.2351C22.0104 10.5776 17.9114 9.29618 15.0393 9.12904C14.7326 9.10118 14.5095 9.29618 14.4816 9.60259C14.4526 10.0383 14.4311 10.4286 14.4092 10.8248C14.3892 11.1885 14.3689 11.5571 14.3422 11.9703C14.3422 12.1932 14.5374 12.4439 14.7326 12.4996C16.6845 13.001 17.7999 14.5052 17.7999 17.2351V19.77C17.7999 21.9706 20.17 23.3356 20.17 23.3356V23.447C19.445 23.7534 17.7999 24.7841 17.7999 26.7897V29.4082ZM39.9378 30.0782C37.4207 30.0782 36.0266 29.0337 35.5813 28.5889C35.3877 28.3954 35.3296 28.3181 35.4845 28.0473L36.3945 26.4418C36.5494 26.1904 36.9173 26.2291 37.0528 26.3258C37.0612 26.33 37.0851 26.3458 37.1227 26.3706L37.1228 26.3707C37.4317 26.5751 38.6631 27.3896 39.8022 27.3896C40.5767 27.3896 41.1382 26.9061 41.1382 26.2291C41.1382 25.4167 40.4606 24.7977 39.1439 24.2755C37.4788 23.6178 35.3877 22.3219 35.3877 20.0008C35.3877 18.0859 36.8786 16.1516 39.8603 16.1516C41.874 16.1516 43.423 17.1768 44.0038 17.6023C44.2362 17.7377 44.1974 18.0859 44.12 18.2213L43.1325 19.7106C42.997 19.9234 42.6485 20.0975 42.4742 19.9621C42.4506 19.949 42.4043 19.9182 42.339 19.8747C41.9215 19.5968 40.7266 18.8015 39.7054 18.8015C39.0084 18.8015 38.4856 19.2658 38.4856 19.788C38.4856 20.5037 39.0665 21.0453 40.5961 21.6642C42.1063 22.2639 44.5072 23.4437 44.5072 26.0743C44.5072 28.0666 42.784 30.0782 39.9378 30.0782Z" fill="white"/>
<path d="M54.5735 10.6991C54.5735 12.4209 56.0121 13.8482 57.7906 13.8482C59.5804 13.8482 61.0303 12.4209 61.0303 10.6991V6.02071C61.0303 5.90743 60.9284 5.80548 60.8151 5.80548H59.4218C59.2972 5.80548 59.2065 5.90743 59.2065 6.02071V10.6085C59.2065 11.4014 58.6062 12.0358 57.7906 12.0358C56.9863 12.0358 56.3972 11.4014 56.3972 10.6085V6.02071C56.3972 5.90743 56.3066 5.80548 56.182 5.80548H54.7887C54.6754 5.80548 54.5735 5.90743 54.5735 6.02071V10.6991Z" fill="white"/>
<path d="M62.5109 12.976C62.7714 13.2365 63.587 13.8482 65.0596 13.8482C66.7248 13.8482 67.733 12.6701 67.733 11.5034C67.733 9.96277 66.3284 9.27178 65.4448 8.92062C64.5499 8.55813 64.2101 8.24095 64.2101 7.82182C64.2101 7.51597 64.5159 7.24411 64.9237 7.24411C65.6147 7.24411 66.4416 7.86713 66.5436 7.92377C66.6455 8.00307 66.8494 7.90112 66.9287 7.77651L67.5064 6.90427C67.5518 6.82498 67.5744 6.62108 67.4385 6.54178C67.0986 6.29257 66.1924 5.6922 65.0143 5.6922C63.2698 5.6922 62.3976 6.82498 62.3976 7.94643C62.3976 9.30576 63.621 10.0647 64.5952 10.4499C65.3655 10.7557 65.762 11.1182 65.762 11.594C65.762 11.9904 65.4335 12.2736 64.9803 12.2736C64.2327 12.2736 63.4171 11.6733 63.3718 11.6506C63.2925 11.594 63.0773 11.5713 62.9867 11.7186L62.4542 12.6588C62.3636 12.8174 62.3976 12.8627 62.5109 12.976Z" fill="white"/>
<path d="M69.1699 13.5197C69.1699 13.633 69.2606 13.7349 69.3852 13.7349H74.0749C74.1995 13.7349 74.2901 13.633 74.2901 13.5197V12.285C74.2901 12.1717 74.1995 12.0697 74.0749 12.0697H70.9371V10.5405H73.5198C73.6331 10.5405 73.735 10.4499 73.735 10.3253V9.09053C73.735 8.97726 73.6331 8.87531 73.5198 8.87531H70.9371V7.47066H74.0749C74.1995 7.47066 74.2901 7.36871 74.2901 7.25543V6.02071C74.2901 5.90743 74.1995 5.80548 74.0749 5.80548H69.3852C69.2606 5.80548 69.1699 5.90743 69.1699 6.02071V13.5197Z" fill="white"/>
<path d="M75.864 13.5197C75.864 13.633 75.9546 13.7349 76.0792 13.7349H77.4272C77.5405 13.7349 77.6424 13.633 77.6424 13.5197V10.6311H78.424L79.9306 13.633C79.9533 13.6783 80.0213 13.7349 80.1119 13.7349H81.6185C81.811 13.7349 81.8903 13.5537 81.811 13.4064L80.2591 10.5292C81.2447 10.1327 81.9356 9.29444 81.9356 8.25228C81.9356 6.90427 80.8255 5.80548 79.4662 5.80548H76.0792C75.9546 5.80548 75.864 5.90743 75.864 6.02071V13.5197ZM77.6424 9.19249V7.42535H79.3189C79.7834 7.42535 80.1798 7.8105 80.1798 8.28626C80.1798 8.76203 79.7834 9.19249 79.3189 9.19249H77.6424Z" fill="white"/>
<path d="M54.6868 27.0186C54.6868 27.1319 54.7774 27.2339 54.902 27.2339H59.5917C59.7163 27.2339 59.8069 27.1319 59.8069 27.0186V25.7839C59.8069 25.6706 59.7163 25.5687 59.5917 25.5687H56.4539V24.0394H59.0366C59.1499 24.0394 59.2518 23.9488 59.2518 23.8242V22.5895C59.2518 22.4762 59.1499 22.3743 59.0366 22.3743H56.4539V20.9696H59.5917C59.7163 20.9696 59.8069 20.8677 59.8069 20.7544V19.5196C59.8069 19.4064 59.7163 19.3044 59.5917 19.3044H54.902C54.7774 19.3044 54.6868 19.4064 54.6868 19.5196V27.0186Z" fill="white"/>
<path d="M60.6784 26.9167C60.5765 27.064 60.6784 27.2339 60.871 27.2339H62.4456C62.5362 27.2339 62.6042 27.1772 62.6381 27.1319L64.0881 24.8437H64.1108L65.5947 27.1319C65.6287 27.1886 65.7193 27.2339 65.7873 27.2339H67.3618C67.5431 27.2339 67.645 27.0753 67.5431 26.9167L65.1642 23.1672L67.4638 19.6216C67.5657 19.4743 67.4638 19.3044 67.2712 19.3044H65.6174C65.5381 19.3044 65.4588 19.3611 65.4361 19.4064L64.1108 21.5133H64.0994L62.7967 19.4064C62.7628 19.3611 62.6948 19.3044 62.6155 19.3044H60.9616C60.7691 19.3044 60.6784 19.4743 60.7691 19.6216L63.0573 23.1672L60.6784 26.9167Z" fill="white"/>
<path d="M68.8602 27.0186C68.8602 27.1319 68.9508 27.2339 69.0754 27.2339H70.4121C70.5254 27.2339 70.6273 27.1319 70.6273 27.0186V24.3566H71.8167C73.1987 24.3566 74.3428 23.2125 74.3428 21.8079C74.3428 20.4372 73.1987 19.3044 71.8054 19.3044H69.0754C68.9508 19.3044 68.8602 19.4064 68.8602 19.5196V27.0186ZM70.6273 22.7028V20.9696H71.7035C72.1906 20.9696 72.5984 21.3321 72.5984 21.8079C72.5984 22.3176 72.1906 22.7028 71.7035 22.7028H70.6273Z" fill="white"/>
<path d="M75.5542 27.0186C75.5542 27.1319 75.6448 27.2339 75.7694 27.2339H80.4591C80.5837 27.2339 80.6744 27.1319 80.6744 27.0186V25.7839C80.6744 25.6706 80.5837 25.5687 80.4591 25.5687H77.3213V24.0394H79.9041C80.0174 24.0394 80.1193 23.9488 80.1193 23.8242V22.5895C80.1193 22.4762 80.0174 22.3743 79.9041 22.3743H77.3213V20.9696H80.4591C80.5837 20.9696 80.6744 20.8677 80.6744 20.7544V19.5196C80.6744 19.4064 80.5837 19.3044 80.4591 19.3044H75.7694C75.6448 19.3044 75.5542 19.4064 75.5542 19.5196V27.0186Z" fill="white"/>
<path d="M82.2482 27.0186C82.2482 27.1319 82.3388 27.2339 82.4634 27.2339H83.8115C83.9247 27.2339 84.0267 27.1319 84.0267 27.0186V24.1301H84.8083L86.3149 27.1319C86.3376 27.1772 86.4055 27.2339 86.4961 27.2339H88.0027C88.1953 27.2339 88.2746 27.0526 88.1953 26.9054L86.6434 24.0281C87.6289 23.6316 88.3199 22.7934 88.3199 21.7512C88.3199 20.4032 87.2098 19.3044 85.8505 19.3044H82.4634C82.3388 19.3044 82.2482 19.4064 82.2482 19.5196V27.0186ZM84.0267 22.6914V20.9243H85.7032C86.1676 20.9243 86.5641 21.3094 86.5641 21.7852C86.5641 22.261 86.1676 22.6914 85.7032 22.6914H84.0267Z" fill="white"/>
<path d="M89.8936 27.0186C89.8936 27.1319 89.9955 27.2339 90.1088 27.2339H91.4682C91.5814 27.2339 91.6834 27.1319 91.6834 27.0186V19.5196C91.6834 19.4064 91.5814 19.3044 91.4682 19.3044H90.1088C89.9955 19.3044 89.8936 19.4064 89.8936 19.5196V27.0186Z" fill="white"/>
<path d="M93.6893 27.0186C93.6893 27.1319 93.7799 27.2339 93.9045 27.2339H98.5942C98.7188 27.2339 98.8094 27.1319 98.8094 27.0186V25.7839C98.8094 25.6706 98.7188 25.5687 98.5942 25.5687H95.4564V24.0394H98.0392C98.1524 24.0394 98.2544 23.9488 98.2544 23.8242V22.5895C98.2544 22.4762 98.1524 22.3743 98.0392 22.3743H95.4564V20.9696H98.5942C98.7188 20.9696 98.8094 20.8677 98.8094 20.7544V19.5196C98.8094 19.4064 98.7188 19.3044 98.5942 19.3044H93.9045C93.7799 19.3044 93.6893 19.4064 93.6893 19.5196V27.0186Z" fill="white"/>
<path d="M100.383 27.0186C100.383 27.1319 100.485 27.2339 100.599 27.2339H101.947C102.071 27.2339 102.162 27.1319 102.162 27.0186V22.7934H102.173L106.648 27.2905C106.67 27.3132 106.761 27.3471 106.795 27.3471H106.976C107.089 27.3471 107.191 27.2565 107.191 27.1432V19.5196C107.191 19.4064 107.089 19.3044 106.976 19.3044H105.617C105.492 19.3044 105.402 19.4064 105.402 19.5196V23.541H105.39L100.87 19.1911H100.587C100.474 19.1911 100.372 19.2818 100.372 19.395L100.383 27.0186Z" fill="white"/>
<path d="M108.624 23.2805C108.624 25.546 110.447 27.3471 112.713 27.3471C113.721 27.3471 114.695 26.996 115.466 26.2484C115.545 26.1691 115.556 26.0218 115.477 25.9425L114.593 25.0023C114.525 24.923 114.378 24.923 114.299 24.991C113.891 25.3421 113.313 25.5347 112.781 25.5347C111.501 25.5347 110.549 24.4925 110.549 23.2352C110.549 21.9664 111.489 20.9016 112.77 20.9016C113.325 20.9016 113.88 21.1055 114.299 21.4794C114.378 21.5586 114.503 21.5586 114.582 21.4794L115.466 20.5618C115.556 20.4712 115.556 20.3352 115.454 20.2446C114.684 19.5423 113.846 19.1911 112.713 19.1911C110.447 19.1911 108.624 21.0149 108.624 23.2805Z" fill="white"/>
<path d="M116.88 27.0186C116.88 27.1319 116.97 27.2339 117.095 27.2339H121.785C121.909 27.2339 122 27.1319 122 27.0186V25.7839C122 25.6706 121.909 25.5687 121.785 25.5687H118.647V24.0394H121.23C121.343 24.0394 121.445 23.9488 121.445 23.8242V22.5895C121.445 22.4762 121.343 22.3743 121.23 22.3743H118.647V20.9696H121.785C121.909 20.9696 122 20.8677 122 20.7544V19.5196C122 19.4064 121.909 19.3044 121.785 19.3044H117.095C116.97 19.3044 116.88 19.4064 116.88 19.5196V27.0186Z" fill="white"/>
<path d="M54.2903 39.9739C54.5508 40.2344 55.3664 40.8461 56.839 40.8461C58.5042 40.8461 59.5124 39.668 59.5124 38.5012C59.5124 36.9607 58.1077 36.2697 57.2242 35.9185C56.3293 35.556 55.9894 35.2388 55.9894 34.8197C55.9894 34.5139 56.2953 34.242 56.7031 34.242C57.3941 34.242 58.221 34.865 58.323 34.9217C58.4249 35.001 58.6288 34.899 58.7081 34.7744L59.2858 33.9022C59.3311 33.8229 59.3538 33.619 59.2179 33.5397C58.878 33.2905 57.9718 32.6901 56.7937 32.6901C55.0492 32.6901 54.177 33.8229 54.177 34.9443C54.177 36.3036 55.4004 37.0626 56.3746 37.4478C57.1449 37.7536 57.5414 38.1161 57.5414 38.5919C57.5414 38.9883 57.2128 39.2715 56.7597 39.2715C56.0121 39.2715 55.1965 38.6712 55.1512 38.6485C55.0719 38.5919 54.8567 38.5692 54.766 38.7165L54.2336 39.6567C54.143 39.8153 54.177 39.8606 54.2903 39.9739Z" fill="white"/>
<path d="M60.3716 36.7794C60.3716 39.045 62.1727 40.8461 64.4383 40.8461C66.7038 40.8461 68.5163 39.045 68.5163 36.7794C68.5163 34.5139 66.7038 32.6901 64.4383 32.6901C62.1727 32.6901 60.3716 34.5139 60.3716 36.7794ZM62.1841 36.7794C62.1841 35.5334 63.2036 34.5025 64.4383 34.5025C65.6843 34.5025 66.7038 35.5334 66.7038 36.7794C66.7038 38.0141 65.6843 39.0336 64.4383 39.0336C63.2036 39.0336 62.1841 38.0141 62.1841 36.7794Z" fill="white"/>
<path d="M69.3666 36.7794C69.3666 39.045 71.1904 40.8461 73.4559 40.8461C74.4641 40.8461 75.4383 40.4949 76.2086 39.7473C76.2879 39.668 76.2992 39.5207 76.2199 39.4414L75.3363 38.5012C75.2684 38.4219 75.1211 38.4219 75.0418 38.4899C74.634 38.8411 74.0563 39.0336 73.5239 39.0336C72.2438 39.0336 71.2923 37.9915 71.2923 36.7341C71.2923 35.4654 72.2325 34.4006 73.5126 34.4006C74.0676 34.4006 74.6227 34.6045 75.0418 34.9783C75.1211 35.0576 75.2457 35.0576 75.325 34.9783L76.2086 34.0607C76.2992 33.9701 76.2992 33.8342 76.1972 33.7436C75.427 33.0412 74.5887 32.6901 73.4559 32.6901C71.1904 32.6901 69.3666 34.5139 69.3666 36.7794Z" fill="white"/>
<path d="M77.6229 40.5176C77.6229 40.6309 77.7248 40.7328 77.8381 40.7328H79.1974C79.3107 40.7328 79.4126 40.6309 79.4126 40.5176V33.0186C79.4126 32.9053 79.3107 32.8034 79.1974 32.8034H77.8381C77.7248 32.8034 77.6229 32.9053 77.6229 33.0186V40.5176Z" fill="white"/>
<path d="M81.4185 40.5176C81.4185 40.6309 81.5092 40.7328 81.6338 40.7328H86.3235C86.4481 40.7328 86.5387 40.6309 86.5387 40.5176V39.2829C86.5387 39.1696 86.4481 39.0676 86.3235 39.0676H83.1857V37.5384H85.7684C85.8817 37.5384 85.9836 37.4478 85.9836 37.3231V36.0884C85.9836 35.9751 85.8817 35.8732 85.7684 35.8732H83.1857V34.4685H86.3235C86.4481 34.4685 86.5387 34.3666 86.5387 34.2533V33.0186C86.5387 32.9053 86.4481 32.8034 86.3235 32.8034H81.6338C81.5092 32.8034 81.4185 32.9053 81.4185 33.0186V40.5176Z" fill="white"/>
<path d="M89.1321 40.5176C89.1321 40.6309 89.234 40.7328 89.3473 40.7328H90.7066C90.8199 40.7328 90.9219 40.6309 90.9219 40.5176V34.4685H92.5417C92.6663 34.4685 92.757 34.3666 92.757 34.2533V33.0186C92.757 32.9053 92.6663 32.8034 92.5417 32.8034H87.5122C87.3876 32.8034 87.297 32.9053 87.297 33.0186V34.2533C87.297 34.3666 87.3876 34.4685 87.5122 34.4685H89.1321V40.5176Z" fill="white"/>
<path d="M95.7922 40.5176C95.7922 40.6309 95.8828 40.7328 96.0074 40.7328H97.3554C97.4687 40.7328 97.5706 40.6309 97.5706 40.5176V36.904L100.108 33.1319C100.199 32.9846 100.108 32.8034 99.9268 32.8034H98.4542C98.3523 32.8034 98.3069 32.86 98.273 32.9053L96.6984 35.2275L95.1238 32.9053C95.0899 32.86 95.0332 32.8034 94.9426 32.8034H93.47C93.2887 32.8034 93.1981 32.9846 93.2887 33.1319L95.7922 36.9153V40.5176Z" fill="white"/>
</svg>
